<svg width="24" height="24" fill="none" xmlns="http://www.w3.org/2000/svg"><path d="M9.403 18c5.283 0 8.173-4.617 8.173-8.62 0-.132 0-.263-.009-.393A6.022 6.022 0 0019 7.419a5.49 5.49 0 01-1.65.477 3.02 3.02 0 001.264-1.677 5.579 5.579 0 01-1.825.736c-1.087-1.22-2.907-1.279-4.064-.132-.745.74-1.062 1.844-.83 2.896-2.31-.123-4.462-1.273-5.92-3.166-.763 1.385-.373 3.155.89 4.045a2.74 2.74 0 01-1.305-.38v.04c0 1.441.965 2.683 2.304 2.969-.422.122-.866.14-1.296.052.376 1.234 1.455 2.08 2.683 2.104a5.575 5.575 0 01-3.567 1.3A5.597 5.597 0 015 16.639a7.828 7.828 0 004.403 1.359" fill="#fff"/></svg>